<svg clip-rule="evenodd" fill-rule="evenodd" stroke-linecap="round" stroke-linejoin="round" stroke-miterlimit="1.5" viewBox="0 0 3486 1114" xmlns="http://www.w3.org/2000/svg" xmlns:xlink="http://www.w3.org/1999/xlink"><clipPath id="a">  <circle clip-rule="evenodd" cx="760.351" cy="935.56" r="703.612" /></clipPath><g transform="matrix(1.0162 0 0 .804796 -952.66 -1355.99)">  <path d="m937.477 1684.89h3430.25v1383.43h-3430.25z" fill="none" />  <g transform="matrix(.574018918 0 0 .724800049 1015.01561006 1698.511886722)"> <circle cx="760.351" cy="935.56" fill="#fe0041" r="703.612" /> <g clip-path="url(#a)" id="wp">   <path id="w3" d="m0 1045.37s407.386 396.8 790.182-67.607c354.898-430.564 746.168-345.224 821.968 247.847 52.07 407.39 406.88 289.7 406.88 289.7l-217.29 213.97-772.62 250.56-1029.12-29.33z" fill="#c80031" transform="matrix(1.23573 0 0 .999153 -593.397 -141.162)" />   <path id="w2" d="m0 1045.37s407.386 396.8 790.182-67.607c354.898-430.564 626.498-362.005 784.618 32.317 89.82 223.98 123.68 91.8 123.68 91.8l103.26 627.4-772.62 250.56-1029.12-29.33z" fill="#81001d" transform="matrix(1.23573 0 0 .999153 -539.383 77.6859)" />   <path id="w1" d="m0 1045.37s407.386 396.8 790.182-67.607c354.898-430.564 713.638-208.053 784.618 32.317 69.36 234.83 123.68 91.8 123.68 91.8l103.26 627.4-772.62 250.56-1029.12-29.33z" fill="#3600a6" transform="matrix(1.08827 0 0 .949498 -220.036 238.886)" /> </g> <circle cx="760.351" cy="935.56" fill="none" r="703.612" stroke="#e6e2ec" stroke-width="76.19" />  </g>  <g fill="#e6e2ec" fill-rule="nonzero"> <path d="m1.168-.7-.227.7h-.212l-.134-.426-.14.426h-.212l-.227-.7h.204l.141.447.148-.447h.182l.141.451.147-.451z" transform="matrix(444.59642541325 0 0 561.38051539623 2801.55863787799 2567.42549639576)" /> <path d="m.539-.136h-.296l-.055.136h-.202l.309-.7h.195l.31.7h-.206zm-.058-.146-.09-.224-.09.224z" transform="matrix(444.59642541325 0 0 561.38051539623 3310.62394116804 2567.42549639576)" /> <path d="m.78-.7-.3.7h-.195l-.299-.7h.214l.19.456.194-.456z" transform="matrix(444.59642541325 0 0 561.38051539623 3642.73514954861 2567.42549639576)" /> <path d="m.632-.153v.153h-.562v-.7h.549v.153h-.353v.118h.311v.148h-.311v.128z" transform="matrix(444.59642541325 0 0 561.38051539623 3976.62751081422 2567.42549639576)" /> <path d="m.608-.365c.04.014.071.036.094.065.023.03.034.066.034.108 0 .061-.025.109-.074.142s-.121.05-.214.05h-.378v-.7h.358c.089 0 .157.016.204.049s.07.078.07.134c0 .033-.008.063-.024.089-.017.027-.04.048-.07.063zm-.342-.192v.135h.136c.067 0 .1-.023.1-.068s-.033-.067-.1-.067zm.166.414c.069 0 .104-.024.104-.071s-.035-.071-.104-.071h-.166v.142z" transform="matrix(444.59642541325 0 0 561.38051539623 1981.66739521467 2562.46772054415)" /> <path d="m.07-.7h.198v.7h-.198z" transform="matrix(444.59642541325 0 0 561.38051539623 2323.5601835274 2562.46772054415)" /> <path d="m.442-.397h.272v.322c-.04.029-.086.051-.138.066s-.104.023-.156.023c-.073 0-.139-.016-.198-.047s-.105-.074-.138-.129-.05-.118-.05-.188.017-.133.05-.188.08-.098.139-.13c.059-.031.126-.046.201-.046.065 0 .124.011.176.033s.095.054.13.095l-.126.114c-.047-.052-.104-.078-.17-.078-.06 0-.108.018-.145.054-.037.037-.055.085-.055.146 0 .039.008.073.025.103.017.031.04.054.07.071s.064.026.103.026c.038 0 .074-.008.107-.023v-.089h-.097z" transform="matrix(444.59642541325 0 0 561.38051539623 2474.27917572145 2562.46772054415)" />  </g></g><style>  #wp{position:relative}#w1,#w2,#w3,#w4{opacity:0}#w1{animation:w1 2s ease forwards 1;animation-delay:1.6s}#w2{animation:w2 2s ease forwards 1;animation-delay:1.4s}#w3{animation:w3 2s ease forwards 1;animation-delay:1.2s}#w4{animation:w4 2s ease forwards 1;animation-delay:1.6s}@keyframes w1{0%{opacity:0;transform:matrix(.936762,.553899,-.483269,.817311,10.3259,388.827)}100%{opacity:1;transform:matrix(1.08827,0,0,.949498,-220.036,238.886)}}@keyframes w2{0%{opacity:0;transform:matrix(1.10407,.555021,-.448765,.892702,-122.4,380.272)}100%{opacity:1;transform:matrix(1.23573,0,0,.999153,-530.407,60.4194)}}@keyframes w3{0%{opacity:0;transform:matrix(1.1065,.550167,-.444839,.894664,-301.627,455.678)}100%{opacity:1;transform:matrix(1.23573,0,0,.999153,-585.917,-166.592)}}</style>
</svg>