<?xml version="1.0" encoding="UTF-8" standalone="no"?>
<!DOCTYPE svg PUBLIC "-//W3C//DTD SVG 1.1//EN" "http://www.w3.org/Graphics/SVG/1.1/DTD/svg11.dtd">
<svg width="100%" height="100%" viewBox="0 0 1144 1144" version="1.1" xmlns="http://www.w3.org/2000/svg" xmlns:xlink="http://www.w3.org/1999/xlink" xml:space="preserve" xmlns:serif="http://www.serif.com/" style="fill-rule:evenodd;clip-rule:evenodd;stroke-linecap:round;stroke-linejoin:round;stroke-miterlimit:1.5;">
    <g transform="matrix(1,0,0,1,-964,-6597)">
        <g id="Artboard4" transform="matrix(1,0,0,1,-0.319445,3412.29)">
            <rect x="964.319" y="3184.71" width="1143.75" height="1143.75" style="fill:none;"/>
            <g transform="matrix(0.770475,0,0,0.770475,950.363,3035.76)">
                <circle cx="760.351" cy="935.56" r="703.612" style="fill:rgb(254,0,65);"/>
                <clipPath id="_clip1">
                    <circle cx="760.351" cy="935.56" r="703.612"/>
                </clipPath>
                <g clip-path="url(#_clip1)">
                    <g id="w4" transform="matrix(1.23573,0,0,0.999153,-593.397,-703.429)">
                        <path d="M0,1045.37C0,1045.37 407.386,1442.17 790.182,977.763C1145.08,547.199 1536.35,632.539 1612.15,1225.61C1664.22,1633 2019.03,1515.31 2019.03,1515.31L1422.99,2288.68L1174.98,2383.24L745.622,2344.59L0,1045.37Z" style="fill:rgb(254,0,65);"/>
                    </g>
                    <g id="w3" transform="matrix(1.23573,0,0,0.999153,-593.397,-204.4)">
                        <path d="M0,892.468C0,892.468 375.809,1366.28 776.959,926.205C1155.08,511.396 1536.35,632.539 1612.15,1225.61C1664.22,1633 2019.03,1515.31 2019.03,1515.31L1801.74,1729.28L1029.12,1979.84L0,1950.51L0,892.468Z" style="fill:rgb(200,0,49);"/>
                    </g>
                    <g id="w2" transform="matrix(1.23573,0,0,0.999153,-550.675,38.1617)">
                        <path d="M0,1045.37C0,1045.37 430.546,1469.68 790.182,977.763C1133.4,508.31 1416.68,615.758 1574.8,1010.08C1664.62,1234.06 1698.48,1101.88 1698.48,1101.88L1801.74,1729.28L1029.12,1979.84L0,1950.51L0,1045.37Z" style="fill:rgb(129,0,29);"/>
                    </g>
                    <g id="w1" transform="matrix(1.08827,0,0,0.949498,-220.036,238.886)">
                        <path d="M0,1045.37C0,1045.37 407.386,1442.17 790.182,977.763C1145.08,547.199 1503.82,769.71 1574.8,1010.08C1644.16,1244.91 1698.48,1101.88 1698.48,1101.88L1801.74,1729.28L1029.12,1979.84L0,1950.51L0,1045.37Z" style="fill:rgb(54,0,166);"/>
                    </g>
                </g>
                <circle cx="760.351" cy="935.56" r="703.612" style="fill:none;stroke:rgb(54,0,166);stroke-width:76.19px;"/>
            </g>
        </g>
    </g>
</svg>
